<svg
version="1.1"
id="Layer_1"
xmlns="http://www.w3.org/2000/svg"
xmlns:xlink="http://www.w3.org/1999/xlink"
x="0px"
y="0px"
width="203.689px"
height="55.247px"
viewBox="0 0 203.689 55.247"
enable-background="new 0 0 203.689 55.247"
xml:space="preserve"
>
    <g class="socialicon" fill="#5b708b">
      <path
        fill="#FFFFFF"
        d="M126.027,48.084c-11.305,0-20.5-9.197-20.5-20.5c0-11.304,9.195-20.5,20.5-20.5s20.5,9.196,20.5,20.5
   C146.527,38.887,137.332,48.084,126.027,48.084z"
      />
      <path
        d="M146.539,27.583c0,9.4-6.311,17.32-14.939,19.74c0,0.01,0,0.01-0.01,0c-0.881,0.17-1.148-0.34-1.148-0.8v-4.771
   c0-1.603-0.569-2.643-1.182-3.17c3.84-0.42,7.859-1.881,7.859-8.5c0-1.881-0.67-3.42-1.77-4.623c0.18-0.44,0.77-2.19-0.17-4.56
   c0,0-1.441-0.46-4.73,1.77c-1.381-0.39-2.85-0.58-4.32-0.58c-1.459,0-2.93,0.19-4.311,0.58c-3.289-2.23-4.729-1.77-4.729-1.77
   c-0.938,2.37-0.351,4.12-0.17,4.56c-1.102,1.2-1.771,2.742-1.771,4.623c0,6.6,4.011,8.08,7.841,8.521
   c-0.489,0.42-0.94,1.181-1.091,2.3c-0.979,0.439-3.479,1.2-5.01-1.431c0,0-0.921-1.659-2.649-1.779c0,0-1.671-0.021-0.11,1.05
   c0,0,1.131,0.53,1.91,2.521c0,0,0.99,3.312,5.779,2.271c0.011,1.438,0,2.58,0,2.988c0,0.46-0.271,0.973-1.129,0.812
   c0,0-0.021,0.01-0.062,0.039c-8.698-2.369-15.103-10.33-15.103-19.792c0-11.32,9.183-20.5,20.5-20.5
   C137.359,7.083,146.539,16.264,146.539,27.583z"
      />
    </g>
</svg>