<svg
version="1.1"
id="Layer_1"
xmlns="http://www.w3.org/2000/svg"
xmlns:xlink="http://www.w3.org/1999/xlink"
x="0px"
y="0px"
width="203.689px"
height="55.247px"
viewBox="0 0 203.689 55.247"
enable-background="new 0 0 203.689 55.247"
xml:space="preserve"
>
<g class="socialicon" fill="#5b708b">
  <path
    d="M27.5,48.124c-11.304,0-20.5-9.197-20.5-20.5c0-11.304,9.196-20.5,20.5-20.5S48,16.32,48,27.624
C48,38.926,38.804,48.124,27.5,48.124z"
  />
  <rect
    x="18.473"
    y="22.554"
    fill="#FFFFFF"
    width="4.164"
    height="13.476"
  />
  <path
    fill="#FFFFFF"
    d="M22.637,17.777c-0.024-1.206-0.828-2.124-2.134-2.124s-2.159,0.918-2.159,2.124
c0,1.181,0.829,2.124,2.109,2.124h0.025C21.809,19.901,22.637,18.958,22.637,17.777z"
  />
  <path
    fill="#FFFFFF"
    d="M29.433,36.029v-7.677c0-0.411,0.029-0.822,0.15-1.115c0.331-0.822,1.082-1.672,2.345-1.672
c1.654,0,2.691,0.939,2.691,2.787v7.677h4.192v-7.883c0-4.223-2.254-6.188-5.261-6.188c-2.466,0-3.548,1.379-4.148,2.316
l0.03-1.803h-4.187c0.061,1.29,0,13.557,0,13.557L29.433,36.029L29.433,36.029z"
  />
</g>
</svg>