<svg
version="1.1"
id="Layer_1"
xmlns="http://www.w3.org/2000/svg"
xmlns:xlink="http://www.w3.org/1999/xlink"
x="0px"
y="0px"
width="203.689px"
height="55.247px"
viewBox="0 0 203.689 55.247"
enable-background="new 0 0 203.689 55.247"
xml:space="preserve"
>
    <g class="socialicon" fill="#5b708b">
      <path
        d="M76.766,48.124c-11.305,0-20.5-9.197-20.5-20.5c0-11.304,9.195-20.5,20.5-20.5c11.304,0,20.5,9.196,20.5,20.5
   C97.266,38.926,88.07,48.124,76.766,48.124z"
      />
      <path
        fill="#FFFFFF"
        d="M65.939,24.191l0.88,1.153c0,0,1.813-1.429,2.419-0.715c0.604,0.715,2.912,9.344,3.682,10.937
   c0.672,1.396,2.527,3.242,4.562,1.922c2.032-1.315,8.793-7.089,10.004-13.903c1.209-6.813-8.137-5.386-9.125,0.549
   c2.473-1.486,3.795,0.604,2.527,2.968c-1.267,2.361-2.421,3.902-3.021,3.902c-0.604,0-1.07-1.58-1.761-4.342
   c-0.716-2.857-0.712-8.002-3.683-7.419C69.622,19.792,65.939,24.191,65.939,24.191z"
      />
    </g>
</svg>